if (_typeface_js && _typeface_js.loadFace) _typeface_js.loadFace({"glyphs":{"S":{"x_min":116.390625,"x_max":971.109375,"ha":914,"o":"m 372 843 l 383 919 q 413 974 388 953 q 470 994 437 994 l 780 994 q 831 974 813 994 q 843 919 848 953 l 968 919 q 932 1061 981 1003 q 800 1120 883 1120 l 490 1120 q 339 1061 406 1120 q 258 919 272 1003 l 247 843 q 254 752 238 794 q 309 675 269 710 q 376 621 348 640 q 456 572 404 601 q 504 546 466 566 q 560 515 543 526 q 611 482 577 504 q 661 443 644 461 q 695 400 677 425 q 719 349 713 376 q 720 293 725 322 l 704 186 q 674 131 698 152 q 616 111 650 111 l 306 111 q 256 131 273 111 q 244 186 238 152 l 276 391 l 151 391 l 119 186 q 154 44 105 102 q 287 -14 204 -14 l 597 -14 q 747 44 680 -14 q 829 186 815 102 l 845 293 q 840 399 854 348 q 804 483 827 450 q 740 552 781 516 q 671 604 698 587 q 601 646 644 621 q 560 669 588 653 q 513 694 531 685 q 470 720 495 704 q 428 750 444 736 q 397 779 412 764 q 375 811 381 794 q 372 843 369 828 "},"/":{"x_min":0,"x_max":925,"ha":750,"o":"m 111 -83 l 925 1195 l 813 1195 l 0 -83 l 111 -83 "},"K":{"x_min":125,"x_max":1148.609375,"ha":1015,"o":"m 334 552 l 248 0 l 125 0 l 300 1112 l 423 1112 l 354 676 l 687 676 l 1018 1112 l 1148 1112 l 783 620 l 781 607 l 973 0 l 843 0 l 668 552 l 334 552 "},"7":{"x_min":173.609375,"x_max":862.5,"ha":743,"o":"m 173 0 l 298 0 l 862 1070 l 195 1070 l 176 945 l 670 945 l 173 0 "},"d":{"x_min":120.5,"x_max":936.109375,"ha":879,"o":"m 708 793 l 413 793 q 274 739 337 793 q 200 608 211 685 l 122 118 q 145 24 113 63 q 233 -14 177 -14 q 372 11 266 -14 q 566 60 477 36 l 655 85 l 643 0 l 768 0 l 936 1061 l 811 1061 l 766 781 q 708 793 736 793 m 394 667 l 688 667 q 729 651 715 667 q 738 607 743 635 l 676 210 q 263 112 293 112 q 255 174 247 112 l 325 607 q 347 650 329 633 q 394 667 366 667 "},",":{"x_min":112.5,"x_max":305.5625,"ha":397,"o":"m 237 -217 l 305 215 l 180 215 l 112 -217 l 237 -217 "},"Y":{"x_min":216.734375,"x_max":1079.390625,"ha":946,"o":"m 334 311 l 458 311 l 409 0 l 533 0 l 582 311 l 714 311 q 754 325 734 311 q 780 358 773 340 l 1079 1111 l 954 1111 l 690 454 q 673 436 686 436 l 414 436 q 405 440 408 436 q 403 449 403 444 l 403 454 l 344 1113 l 216 1113 l 282 358 q 297 325 282 340 q 334 311 313 311 "},"E":{"x_min":125,"x_max":956.953125,"ha":838,"o":"m 937 986 l 405 986 l 355 675 l 850 675 l 830 550 l 336 550 l 269 125 l 801 125 l 781 0 l 125 0 l 300 1112 l 956 1112 l 937 986 "},"y":{"x_min":95.828125,"x_max":890.28125,"ha":879,"o":"m 115 -103 l 95 -229 l 547 -229 q 686 -176 625 -229 q 759 -47 747 -123 l 890 778 l 765 778 l 676 211 q 263 113 293 113 q 255 175 247 113 l 351 778 l 226 778 l 122 119 q 146 25 113 64 q 234 -13 179 -13 q 373 12 268 -13 q 568 64 479 38 l 656 89 l 634 -43 q 611 -87 630 -71 q 566 -103 593 -103 l 115 -103 "},"\"":{"x_min":229.171875,"x_max":605.5625,"ha":556,"o":"m 411 1061 l 354 703 l 229 703 l 286 1061 l 411 1061 m 605 1061 l 548 703 l 423 703 l 480 1061 l 605 1061 "},"‹":{"x_min":120.828125,"x_max":526.390625,"ha":547,"o":"m 281 332 l 526 489 l 433 536 l 120 332 l 368 127 l 476 175 l 281 332 "},"„":{"x_min":54.171875,"x_max":410.359375,"ha":538,"o":"m 152 -222 l 209 -118 q 227 -65 223 -93 q 143 69 243 31 l 69 8 q 113 -20 102 -4 q 119 -63 123 -36 q 111 -94 118 -79 l 54 -200 l 152 -222 m 333 -222 l 390 -118 q 408 -65 404 -93 q 323 69 423 31 l 250 8 q 293 -20 283 -4 q 300 -63 304 -36 q 291 -94 298 -79 l 234 -200 l 333 -222 "},"g":{"x_min":88.09375,"x_max":859.140625,"ha":858,"o":"m 252 196 l 318 609 q 340 652 322 635 q 387 668 359 668 l 681 668 q 722 652 708 668 q 731 609 736 636 l 683 303 q 259 188 333 188 q 252 196 250 188 m 663 168 l 629 -44 q 606 -87 625 -72 q 561 -103 587 -103 l 266 -103 q 225 -87 238 -103 q 215 -44 211 -70 l 220 -13 l 95 -13 l 90 -44 q 124 -175 79 -122 q 245 -229 169 -229 l 540 -229 q 679 -176 618 -229 q 752 -46 740 -123 l 856 609 q 822 739 868 685 q 701 794 777 794 l 406 794 q 267 739 330 794 q 193 609 204 685 l 127 196 q 151 101 118 140 q 240 62 184 62 q 379 89 273 62 q 575 142 484 115 l 663 168 "},"–":{"x_min":94.4375,"x_max":777.78125,"ha":719,"o":"m 94 427 l 758 427 l 777 551 l 113 551 l 94 427 "},"e":{"x_min":120.90625,"x_max":859.65625,"ha":838,"o":"m 669 484 l 279 361 l 318 607 q 340 650 322 633 q 387 666 359 666 l 681 666 q 722 650 708 666 q 731 607 736 635 l 719 532 q 704 505 716 516 q 680 489 691 493 l 669 484 m 593 111 l 298 111 q 258 127 272 111 q 248 170 244 143 l 258 233 l 766 394 q 831 453 822 412 l 856 607 q 824 737 869 683 q 701 792 779 792 l 406 792 q 266 737 329 792 q 193 607 204 683 l 123 170 q 156 40 111 94 q 279 -14 201 -14 l 573 -14 q 712 39 650 -14 q 787 170 775 93 l 802 271 l 677 271 l 662 170 q 639 127 658 144 q 593 111 620 111 "},"J":{"x_min":95.5625,"x_max":979.171875,"ha":908,"o":"m 979 1111 l 854 1111 l 708 186 q 678 131 702 152 q 620 111 654 111 l 286 111 q 235 131 252 111 q 223 186 218 152 l 258 405 l 133 405 l 98 186 q 134 44 84 102 q 266 -14 183 -14 l 601 -14 q 752 44 684 -14 q 833 186 819 102 l 979 1111 "},"|":{"x_min":100,"x_max":422.21875,"ha":347,"o":"m 225 -69 l 422 1182 l 297 1182 l 100 -69 l 225 -69 "},"^":{"x_min":209.71875,"x_max":622.21875,"ha":542,"o":"m 436 993 l 511 885 l 622 885 l 483 1091 l 415 1091 l 209 885 l 320 885 l 431 993 l 436 993 "},"q":{"x_min":113.296875,"x_max":858.859375,"ha":865,"o":"m 240 121 l 317 609 q 340 652 321 635 q 387 668 359 668 l 681 668 q 721 652 708 668 q 731 609 735 636 l 670 228 q 246 113 320 113 q 240 121 240 113 m 726 -213 l 856 609 q 822 739 867 685 q 701 794 777 794 l 406 794 q 267 739 330 794 q 192 609 203 685 l 115 121 q 139 26 106 65 q 227 -12 171 -12 q 365 13 260 -12 q 559 63 470 38 l 648 88 l 601 -213 l 726 -213 "},"b":{"x_min":134.828125,"x_max":880.890625,"ha":879,"o":"m 801 170 l 879 659 q 855 753 887 714 q 768 792 823 792 q 629 767 734 792 q 433 717 523 742 l 344 692 l 404 1063 l 279 1063 l 137 170 q 170 40 125 94 q 293 -14 216 -14 l 587 -14 q 726 40 663 -14 q 801 170 788 94 m 745 603 l 676 170 q 653 127 672 144 q 606 111 634 111 l 312 111 q 272 127 286 111 q 263 170 259 143 l 326 567 q 737 666 708 666 q 745 603 756 666 "},"D":{"x_min":125,"x_max":1012.765625,"ha":969,"o":"m 405 986 l 820 986 q 872 969 855 986 q 884 920 890 952 l 770 200 q 741 145 765 166 q 684 125 718 125 l 269 125 l 405 986 m 300 1112 l 125 0 l 665 0 q 815 58 748 0 q 895 200 883 116 l 1009 920 q 974 1057 1023 1002 q 840 1112 925 1112 l 300 1112 "},"z":{"x_min":62.5,"x_max":840.28125,"ha":783,"o":"m 720 0 l 740 124 l 247 124 l 820 658 l 840 784 l 188 784 l 169 658 l 654 658 l 81 125 l 62 0 l 720 0 "},"w":{"x_min":129.890625,"x_max":1248.609375,"ha":1231,"o":"m 1248 778 l 1123 778 l 1030 186 q 958 111 1019 111 l 809 111 q 732 148 758 111 q 718 255 706 186 l 800 778 l 675 778 l 593 255 q 543 148 581 186 q 454 111 505 111 l 305 111 q 258 186 247 111 l 351 778 l 226 778 l 133 186 q 161 43 119 101 q 286 -14 204 -14 l 434 -14 q 552 22 498 -14 q 633 122 606 59 q 684 22 641 59 q 790 -14 727 -14 l 938 -14 q 1081 43 1020 -14 q 1155 186 1141 101 l 1248 778 "},"$":{"x_min":132.046875,"x_max":869.375,"ha":831,"o":"m 536 1070 l 518 948 l 418 948 q 277 893 340 948 q 202 763 215 839 l 201 749 q 220 650 193 695 q 298 579 248 606 q 383 538 348 551 q 448 517 418 525 l 409 267 l 309 267 q 269 283 283 267 q 259 326 255 299 l 279 450 l 154 450 l 134 326 q 168 196 122 250 q 290 142 213 142 l 390 142 l 368 0 l 493 0 l 515 142 l 584 142 q 723 196 661 142 q 798 326 786 250 l 804 360 q 791 450 811 407 q 733 524 772 493 q 660 573 694 554 q 588 606 626 592 l 622 822 l 691 822 q 733 806 719 822 q 741 763 747 789 l 737 735 l 862 735 l 866 763 q 834 894 879 841 q 712 948 788 948 l 643 948 l 661 1070 l 536 1070 m 326 749 l 327 763 q 352 806 333 791 q 397 822 370 822 l 497 822 l 469 645 q 326 749 318 699 m 604 267 l 534 267 l 566 472 q 652 419 619 447 q 680 360 684 390 l 675 326 q 651 283 670 300 q 604 267 631 267 "},"\\":{"x_min":202.78125,"x_max":665.28125,"ha":693,"o":"m 665 0 l 340 1112 l 202 1112 l 526 0 l 665 0 "},"’":{"x_min":219.4375,"x_max":395.109375,"ha":357,"o":"m 318 823 l 375 928 q 393 980 388 953 q 309 1115 408 1078 l 236 1054 q 284 982 294 1032 q 276 951 283 967 l 219 846 l 318 823 "},"~":{"x_min":208.328125,"x_max":577.78125,"ha":482,"o":"m 218 993 l 208 888 q 293 926 248 926 q 382 901 325 926 q 475 877 440 877 q 568 921 523 877 l 577 1027 q 493 988 533 988 q 403 1012 461 988 q 311 1037 345 1037 q 218 993 261 1037 "},"-":{"x_min":150,"x_max":711.109375,"ha":708,"o":"m 150 427 l 691 427 l 711 551 l 169 551 l 150 427 "},"Q":{"x_min":130.28125,"x_max":996.109375,"ha":953,"o":"m 877 186 l 993 919 q 957 1061 1006 1003 q 825 1120 908 1120 l 480 1120 q 329 1061 397 1120 q 248 919 262 1003 l 133 186 q 168 44 119 102 q 301 -14 218 -14 l 411 -14 l 379 -216 l 504 -216 l 536 -14 l 645 -14 q 796 44 729 -14 q 877 186 863 102 m 568 186 l 443 186 l 430 111 l 320 111 q 270 131 287 111 q 258 186 252 152 l 373 919 q 403 974 379 953 q 461 994 427 994 l 805 994 q 856 974 838 994 q 868 919 873 953 l 752 186 q 722 131 747 152 q 665 111 698 111 l 555 111 l 568 186 "},"M":{"x_min":111.109375,"x_max":1222.21875,"ha":1200,"o":"m 975 1112 l 1222 1112 l 1088 0 l 963 0 l 1079 987 l 1065 987 l 650 14 l 552 14 l 447 987 l 433 987 l 236 0 l 111 0 l 329 1112 l 563 1112 l 647 306 l 975 1112 "},"C":{"x_min":130.28125,"x_max":991.9375,"ha":942,"o":"m 908 406 l 780 406 l 745 186 q 739 154 743 165 q 727 132 736 144 q 703 115 719 120 q 661 111 687 111 l 320 111 q 270 131 287 111 q 258 186 252 152 l 373 919 q 403 974 379 953 q 461 994 427 994 l 801 994 q 852 974 834 994 q 863 919 869 953 l 836 744 l 961 744 l 988 919 q 953 1061 1002 1003 q 820 1120 904 1120 l 480 1120 q 329 1061 397 1120 q 248 919 262 1003 l 133 186 q 168 44 119 102 q 301 -14 218 -14 l 641 -14 q 792 44 725 -14 q 873 186 859 102 l 908 406 "},"[":{"x_min":94.4375,"x_max":608.328125,"ha":446,"o":"m 301 1209 l 608 1209 l 588 1084 l 406 1084 l 240 28 l 422 28 l 401 -97 l 94 -97 l 301 1209 "},"L":{"x_min":125,"x_max":800,"ha":808,"o":"m 423 1111 l 268 125 l 800 125 l 780 0 l 125 0 l 300 1111 l 423 1111 "},"!":{"x_min":180.5625,"x_max":480.5625,"ha":489,"o":"m 305 0 l 327 147 l 202 147 l 180 0 l 305 0 m 350 286 l 480 1106 l 355 1106 l 225 286 l 350 286 "},"―":{"x_min":94.4375,"x_max":1502.78125,"ha":1446,"o":"m 94 427 l 1483 427 l 1502 551 l 113 551 l 94 427 "}," ":{"x_min":0,"x_max":0,"ha":347},"{":{"x_min":134.71875,"x_max":506.9375,"ha":401,"o":"m 486 1070 l 506 1195 q 388 1141 441 1188 q 323 1010 336 1095 l 281 749 q 236 636 268 664 q 151 609 204 609 l 134 503 q 211 475 187 503 q 220 362 234 447 l 179 101 q 203 -29 165 16 q 304 -83 241 -76 l 323 41 q 310 47 313 44 q 302 63 306 50 q 304 101 298 76 l 345 363 q 343 504 362 466 q 266 543 323 543 l 269 568 q 359 608 327 568 q 406 749 390 649 l 448 1010 q 486 1070 456 1063 "},"X":{"x_min":55.5625,"x_max":963.890625,"ha":906,"o":"m 826 1113 l 572 757 l 429 1113 l 291 1113 l 481 621 l 55 0 l 187 0 l 529 484 l 718 0 l 850 0 l 616 621 l 963 1113 l 826 1113 "},"P":{"x_min":125,"x_max":1007.21875,"ha":929,"o":"m 405 986 l 815 986 q 867 968 850 986 q 879 919 884 951 l 840 675 q 811 620 834 641 q 754 600 787 600 l 344 600 l 405 986 m 300 1111 l 125 0 l 250 0 l 325 475 l 734 475 q 885 533 818 475 q 965 675 952 591 l 1004 919 q 968 1056 1018 1001 q 834 1111 919 1111 l 300 1111 "},"%":{"x_min":216.3125,"x_max":1470.640625,"ha":1519,"o":"m 693 689 l 726 896 q 721 942 730 922 q 697 963 712 963 l 419 963 q 389 943 404 963 q 370 896 375 924 l 337 689 q 341 642 333 661 q 365 623 350 623 l 643 623 q 673 643 658 623 q 693 689 688 663 m 844 896 l 811 689 q 744 559 798 613 q 625 505 690 505 l 347 505 q 244 559 281 505 q 219 689 206 613 l 252 896 q 318 1026 263 972 q 438 1081 373 1081 l 716 1081 q 818 1027 781 1081 q 844 896 855 974 m 548 1 l 1281 1109 l 1156 1109 l 423 1 l 548 1 m 1316 172 l 1350 380 q 1345 426 1354 406 q 1320 447 1336 447 l 1043 447 q 1013 427 1027 447 q 994 380 998 408 l 961 172 q 965 126 956 146 q 990 106 975 106 l 1268 106 q 1297 125 1283 106 q 1316 172 1312 144 m 1468 380 l 1434 172 q 1368 42 1423 96 q 1248 -12 1313 -12 l 970 -12 q 868 42 905 -12 q 843 172 831 96 l 876 380 q 942 510 887 456 q 1062 565 997 565 l 1340 565 q 1442 511 1405 565 q 1468 380 1479 458 "},"#":{"x_min":173.609375,"x_max":1156.953125,"ha":1133,"o":"m 1137 607 l 922 607 l 862 478 l 1068 478 l 1048 354 l 804 354 l 701 138 l 590 138 l 693 354 l 415 354 l 312 138 l 201 138 l 302 354 l 173 354 l 193 478 l 362 478 l 425 607 l 262 607 l 281 731 l 481 731 l 577 931 l 688 931 l 594 731 l 870 731 l 966 931 l 1077 931 l 983 731 l 1156 731 l 1137 607 m 534 607 l 473 478 l 751 478 l 813 607 l 534 607 "},"_":{"x_min":4.171875,"x_max":773.609375,"ha":806,"o":"m 4 -143 l 754 -143 l 773 -19 l 23 -19 l 4 -143 "},"+":{"x_min":148.609375,"x_max":656.953125,"ha":653,"o":"m 148 421 l 322 421 l 293 229 l 430 229 l 459 421 l 634 421 l 656 557 l 481 557 l 506 715 l 369 715 l 344 557 l 170 557 l 148 421 "},"‚":{"x_min":54.171875,"x_max":231.1875,"ha":357,"o":"m 154 -218 l 211 -113 q 229 -61 223 -87 q 144 73 244 36 l 70 12 q 120 -59 129 -9 q 111 -90 116 -79 l 54 -195 l 154 -218 "},")":{"x_min":65.28125,"x_max":534.890625,"ha":521,"o":"m 404 1170 l 268 1170 q 400 528 454 882 q 65 -114 344 179 l 201 -114 q 520 528 462 163 q 404 1170 577 896 "},"'":{"x_min":229.171875,"x_max":411.109375,"ha":361,"o":"m 411 1061 l 354 703 l 229 703 l 286 1061 l 411 1061 "},"}":{"x_min":69.4375,"x_max":441.671875,"ha":401,"o":"m 272 1195 l 251 1070 q 272 1010 280 1063 l 230 749 q 234 608 213 649 q 309 568 254 568 l 306 543 q 216 504 247 543 q 169 362 186 465 l 127 101 q 117 63 123 76 q 105 47 111 50 q 88 41 100 44 l 69 -83 q 186 -29 134 -76 q 252 101 238 16 l 294 362 q 340 475 308 447 q 425 503 372 503 l 441 609 q 365 636 388 609 q 355 749 341 664 l 397 1010 q 372 1141 409 1095 q 272 1195 334 1188 "},"‰":{"x_min":216.3125,"x_max":2123.421875,"ha":2172,"o":"m 693 689 l 726 896 q 721 942 730 922 q 697 963 712 963 l 419 963 q 389 943 404 963 q 370 896 375 924 l 337 689 q 341 642 333 661 q 365 623 350 623 l 643 623 q 673 643 658 623 q 693 689 688 663 m 844 896 l 811 689 q 744 559 798 613 q 625 505 690 505 l 347 505 q 244 559 281 505 q 219 689 206 613 l 252 896 q 318 1026 263 972 q 438 1081 373 1081 l 716 1081 q 818 1027 781 1081 q 844 896 855 974 m 548 1 l 1281 1109 l 1156 1109 l 423 1 l 548 1 m 1316 172 l 1350 380 q 1345 426 1354 406 q 1320 447 1336 447 l 1043 447 q 1013 427 1027 447 q 994 380 998 408 l 961 172 q 965 126 956 146 q 990 106 975 106 l 1268 106 q 1297 125 1283 106 q 1316 172 1312 144 m 1468 380 l 1434 172 q 1368 42 1423 96 q 1248 -12 1313 -12 l 970 -12 q 868 42 905 -12 q 843 172 831 96 l 876 380 q 942 510 887 456 q 1062 565 997 565 l 1340 565 q 1442 511 1405 565 q 1468 380 1479 458 m 1969 172 l 2002 380 q 1997 426 2006 406 q 1973 447 1988 447 l 1695 447 q 1665 427 1680 447 q 1647 380 1651 408 l 1613 172 q 1618 126 1609 146 q 1643 106 1627 106 l 1920 106 q 1950 125 1936 106 q 1969 172 1965 144 m 2120 380 l 2087 172 q 2021 42 2076 96 q 1901 -12 1966 -12 l 1623 -12 q 1521 42 1558 -12 q 1495 172 1484 96 l 1529 380 q 1595 510 1540 456 q 1715 565 1650 565 l 1993 565 q 2095 511 2058 565 q 2120 380 2131 458 "},"a":{"x_min":120.3125,"x_max":876.171875,"ha":888,"o":"m 234 -14 q 464 35 280 -14 q 672 101 648 84 q 726 17 684 49 q 826 -14 767 -14 l 856 -14 l 876 111 l 848 111 q 805 129 820 111 q 794 174 790 148 l 863 608 q 829 738 874 684 q 708 793 784 793 l 413 793 q 274 738 337 793 q 199 608 210 684 l 122 119 q 146 24 113 63 q 234 -14 178 -14 m 247 119 l 324 608 q 347 651 328 634 q 394 668 366 668 l 688 668 q 728 652 715 668 q 738 608 742 636 l 677 226 q 253 111 327 111 q 247 119 247 111 "},"T":{"x_min":183.328125,"x_max":972.21875,"ha":825,"o":"m 952 987 l 630 987 l 475 0 l 350 0 l 505 987 l 183 987 l 202 1112 l 972 1112 l 952 987 "},"—":{"x_min":94.4375,"x_max":1163.890625,"ha":1106,"o":"m 94 427 l 1144 427 l 1163 551 l 113 551 l 94 427 "},"=":{"x_min":130.5625,"x_max":675,"ha":653,"o":"m 169 550 l 655 550 l 675 676 l 188 676 l 169 550 m 130 299 l 616 299 l 636 424 l 150 424 l 130 299 "},"N":{"x_min":125,"x_max":1043.0625,"ha":993,"o":"m 641 0 l 868 0 l 1043 1112 l 918 1112 l 762 125 l 741 125 l 527 1112 l 300 1112 l 125 0 l 250 0 l 405 986 l 426 986 l 641 0 "},"⁄":{"x_min":27.78125,"x_max":886.109375,"ha":739,"o":"m 152 0 l 886 1109 l 761 1109 l 27 0 l 152 0 "},"2":{"x_min":69.4375,"x_max":896.984375,"ha":804,"o":"m 213 125 l 775 125 l 755 0 l 69 0 l 79 69 q 150 306 104 218 q 300 479 197 394 q 419 550 337 509 q 568 621 501 590 q 692 705 634 652 q 759 821 750 758 l 769 877 q 756 932 775 911 q 705 953 738 953 l 419 953 q 362 932 386 953 q 333 878 338 911 l 208 878 q 288 1019 220 961 q 438 1078 355 1078 l 725 1078 q 857 1019 808 1078 q 894 878 906 961 l 884 821 q 804 653 869 726 q 667 545 738 580 q 506 468 595 509 q 381 397 418 426 q 256 266 286 320 q 213 125 227 211 "},"j":{"x_min":-5.5625,"x_max":468.0625,"ha":418,"o":"m 444 915 l 468 1063 l 343 1063 l 319 915 l 444 915 m -5 -217 l 12 -91 l 95 -91 q 143 -75 123 -91 q 166 -32 162 -58 l 294 778 l 420 778 l 293 -32 q 218 -162 280 -108 q 79 -217 155 -217 l -5 -217 "},"Z":{"x_min":48.609375,"x_max":945.828125,"ha":819,"o":"m 48 0 l 770 0 l 790 125 l 266 125 l 945 1112 l 223 1112 l 204 986 l 729 986 l 48 0 "},"u":{"x_min":120.53125,"x_max":890.28125,"ha":879,"o":"m 890 778 l 765 778 l 676 210 q 263 112 293 112 q 255 174 247 112 l 351 778 l 226 778 l 122 118 q 146 24 113 63 q 234 -14 179 -14 q 372 10 268 -14 q 566 60 477 35 l 655 85 l 643 0 l 768 0 l 890 778 "},"1":{"x_min":200,"x_max":493.0625,"ha":443,"o":"m 325 0 l 493 1063 l 286 1063 l 265 937 l 347 937 l 200 0 l 325 0 "},"›":{"x_min":123.609375,"x_max":529.171875,"ha":547,"o":"m 173 489 l 368 332 l 123 175 l 218 127 l 529 332 l 283 536 l 173 489 "},"k":{"x_min":111.109375,"x_max":878.625,"ha":871,"o":"m 293 378 l 322 565 q 734 664 705 664 q 743 601 754 664 l 716 437 q 693 393 712 409 q 648 378 675 378 l 293 378 m 341 691 l 401 1063 l 277 1063 l 111 0 l 234 0 l 272 252 l 495 252 l 637 0 l 780 0 l 638 254 q 771 309 712 254 q 841 437 830 364 l 876 657 q 853 751 886 712 q 765 790 820 790 q 626 765 731 790 q 430 716 520 741 l 341 691 "},"€":{"x_min":144.4375,"x_max":985.859375,"ha":942,"o":"m 780 406 l 745 186 q 739 154 743 165 q 727 132 736 144 q 703 115 719 120 q 661 111 687 111 l 369 111 q 318 131 336 111 q 306 186 301 152 l 345 431 l 708 431 l 723 528 l 361 528 l 368 578 l 730 578 l 745 675 l 383 675 l 416 877 q 445 932 422 911 q 502 953 469 953 l 794 953 q 845 932 827 953 q 858 877 863 911 l 830 702 l 955 702 l 983 877 q 946 1019 995 961 q 813 1078 897 1078 l 522 1078 q 371 1019 438 1078 q 291 877 304 961 l 258 675 l 181 675 l 166 578 l 243 578 l 236 528 l 159 528 l 144 431 l 220 431 l 181 186 q 217 44 168 102 q 350 -14 266 -14 l 641 -14 q 792 44 725 -14 q 873 186 859 102 l 908 406 l 780 406 "},"<":{"x_min":159.71875,"x_max":670.828125,"ha":643,"o":"m 159 576 l 577 912 l 670 868 l 295 576 l 588 273 l 480 227 l 159 576 "},"t":{"x_min":130.5625,"x_max":658.328125,"ha":564,"o":"m 434 -14 l 454 111 l 370 111 q 329 127 343 111 q 319 170 315 144 l 395 654 l 638 654 l 658 778 l 415 778 l 447 978 l 320 978 l 288 778 l 150 778 l 130 654 l 269 654 l 193 170 q 226 40 180 94 q 348 -14 272 -14 l 434 -14 "},"W":{"x_min":113.625,"x_max":1404.171875,"ha":1317,"o":"m 1279 1111 l 1404 1111 l 1258 186 q 1177 44 1244 102 q 1026 -14 1109 -14 l 848 -14 q 732 26 779 -14 q 679 131 686 67 q 590 26 650 67 q 462 -14 531 -14 l 284 -14 q 152 44 201 -14 q 116 186 102 102 l 262 1111 l 387 1111 l 241 186 q 253 131 236 152 q 304 111 270 111 l 481 111 q 582 158 537 111 q 636 255 627 206 l 770 1111 l 895 1111 l 761 255 q 782 158 752 206 q 868 111 812 111 l 1045 111 q 1103 131 1079 111 q 1133 186 1127 152 l 1279 1111 "},"v":{"x_min":175,"x_max":872.21875,"ha":799,"o":"m 747 777 l 540 129 q 523 111 536 111 l 309 111 q 301 115 304 111 q 298 124 298 119 l 298 129 l 298 776 l 175 776 l 175 33 q 190 0 175 15 q 227 -14 205 -14 l 563 -14 q 604 0 584 -14 q 630 33 625 15 l 872 777 l 747 777 "},">":{"x_min":140.28125,"x_max":663.890625,"ha":643,"o":"m 663 576 l 354 912 l 244 868 l 527 576 l 140 273 l 231 227 l 663 576 "},"s":{"x_min":107.046875,"x_max":845.25,"ha":831,"o":"m 301 593 l 304 607 q 327 650 308 633 q 373 666 345 666 l 668 666 q 708 650 694 666 q 718 607 722 635 l 713 579 l 838 579 l 843 607 q 809 738 854 685 q 687 792 763 792 l 393 792 q 252 737 315 792 q 179 607 190 683 l 176 593 q 192 502 168 544 q 255 434 216 459 q 335 391 294 409 q 405 366 376 373 l 434 358 q 459 350 444 355 q 514 328 475 344 q 584 295 554 312 q 636 252 613 277 q 655 204 659 227 l 650 170 q 626 127 645 144 q 579 111 606 111 l 284 111 q 244 127 258 111 q 234 170 230 143 l 254 294 l 129 294 l 109 170 q 143 40 97 94 q 265 -14 188 -14 l 559 -14 q 698 40 636 -14 q 773 170 761 94 l 779 204 q 763 301 787 255 q 699 375 738 347 q 618 425 659 404 q 547 455 577 447 l 518 465 q 493 472 508 468 q 439 491 477 476 q 372 519 401 505 q 320 554 343 533 q 301 593 298 575 "},"B":{"x_min":125,"x_max":1006.546875,"ha":963,"o":"m 766 166 l 805 413 q 798 474 809 443 q 762 518 787 506 l 331 518 l 269 125 l 716 125 q 766 166 759 125 m 351 643 l 783 643 q 845 741 834 663 l 877 944 q 872 975 880 962 q 844 988 863 988 l 405 988 l 351 643 m 300 1112 l 863 1112 q 974 1062 933 1112 q 1004 945 1015 1013 l 972 744 q 927 646 963 691 q 840 580 891 601 q 913 515 888 561 q 930 413 938 470 l 891 166 q 823 48 880 97 q 698 0 766 0 l 125 0 l 300 1112 "},"…":{"x_min":147.796875,"x_max":759.640625,"ha":888,"o":"m 161 20 q 206 0 179 0 q 258 20 234 0 q 286 68 281 40 q 273 117 291 96 q 227 138 255 138 q 177 117 200 138 q 148 68 154 96 q 161 20 144 40 m 634 20 q 679 0 651 0 q 730 20 706 0 q 758 68 754 40 q 745 117 763 96 q 700 138 727 138 q 649 117 672 138 q 620 68 626 96 q 634 20 616 40 m 397 20 q 443 0 415 0 q 494 20 470 0 q 522 68 518 40 q 509 117 527 96 q 463 138 491 138 q 413 117 436 138 q 384 68 390 96 q 397 20 380 40 "},"?":{"x_min":208.71875,"x_max":925.3125,"ha":858,"o":"m 446 0 l 468 147 l 343 147 l 321 0 l 446 0 m 599 593 l 599 595 l 683 595 q 824 649 761 595 q 897 779 886 703 l 922 935 q 889 1065 935 1011 q 767 1120 844 1120 l 444 1120 q 305 1066 368 1120 q 230 935 243 1013 l 208 791 l 333 791 l 355 935 q 378 978 360 961 q 425 994 397 994 l 747 994 q 787 979 774 994 q 797 935 801 963 l 772 779 q 749 735 768 752 q 704 719 730 719 l 619 719 q 479 665 542 719 q 404 533 417 611 l 362 271 l 487 271 l 529 533 q 552 576 533 560 q 599 593 571 593 "},"H":{"x_min":111.109375,"x_max":1022.21875,"ha":972,"o":"m 1022 1112 l 897 1112 l 827 676 l 341 676 l 411 1112 l 286 1112 l 111 0 l 236 0 l 322 552 l 808 552 l 722 0 l 847 0 l 1022 1112 "},"c":{"x_min":120.9375,"x_max":859.140625,"ha":824,"o":"m 677 271 l 662 170 q 639 127 658 144 q 593 111 620 111 l 298 111 q 258 127 272 111 q 248 170 244 143 l 318 607 q 340 650 322 633 q 387 666 359 666 l 681 666 q 722 650 708 666 q 731 607 736 634 l 715 503 l 840 503 l 856 607 q 822 738 868 685 q 701 792 777 792 l 406 792 q 266 737 329 792 q 193 607 204 683 l 123 170 q 156 40 111 94 q 279 -14 202 -14 l 573 -14 q 712 40 650 -14 q 787 170 775 94 l 802 271 l 677 271 "},"&":{"x_min":119.609375,"x_max":1077.78125,"ha":1082,"o":"m 702 471 l 722 596 l 418 596 q 363 626 391 596 q 341 697 334 657 l 373 897 q 443 940 379 940 l 777 940 q 818 931 809 940 q 825 897 827 921 l 806 788 l 931 788 l 950 897 q 922 1022 962 979 q 797 1066 881 1066 l 462 1066 q 318 1022 376 1066 q 248 897 261 978 l 216 697 q 230 599 208 643 q 297 533 252 554 q 203 468 243 515 q 154 367 163 421 l 122 159 q 156 36 109 79 q 291 -7 204 -7 l 627 -7 q 765 35 712 -7 q 833 159 819 77 l 881 469 l 1058 469 l 1077 595 l 901 595 l 909 645 l 784 645 l 709 173 q 647 118 701 118 l 312 118 q 259 129 276 118 q 248 173 243 141 l 279 366 q 328 439 286 407 q 398 471 370 471 l 702 471 "},"I":{"x_min":131.9375,"x_max":431.9375,"ha":389,"o":"m 256 0 l 431 1112 l 306 1112 l 131 0 l 256 0 "},"•":{"x_min":174.9375,"x_max":391.71875,"ha":436,"o":"m 390 374 q 370 449 397 417 q 300 481 344 481 q 220 449 256 481 q 176 374 183 418 q 195 298 169 330 q 266 267 222 267 q 346 298 309 267 q 390 374 383 329 "},"G":{"x_min":130.28125,"x_max":986.375,"ha":936,"o":"m 655 111 q 743 186 730 111 l 783 447 l 488 447 l 509 572 l 929 572 l 868 185 q 786 44 854 102 q 636 -14 719 -14 l 301 -14 q 168 44 218 -14 q 133 186 119 102 l 248 919 q 329 1061 262 1003 q 480 1120 397 1120 l 815 1120 q 947 1061 898 1120 q 983 919 997 1003 l 955 744 l 830 744 l 858 919 q 846 974 863 953 q 795 994 829 994 l 461 994 q 403 974 427 994 q 373 919 379 953 l 258 186 q 270 131 252 152 q 320 111 287 111 l 655 111 "},"(":{"x_min":152.078125,"x_max":622.21875,"ha":521,"o":"m 486 1170 l 622 1170 q 287 528 341 878 q 419 -114 231 177 l 283 -114 q 166 528 108 163 q 486 1170 223 893 "},"`":{"x_min":237.5,"x_max":469.4375,"ha":513,"o":"m 348 881 l 237 1063 l 358 1063 l 469 881 l 348 881 "},"U":{"x_min":137.234375,"x_max":1026.390625,"ha":963,"o":"m 901 1111 l 755 186 q 725 131 750 152 q 668 111 701 111 l 327 111 q 277 131 294 111 q 265 186 259 152 l 411 1111 l 286 1111 l 140 186 q 175 44 126 102 q 308 -14 225 -14 l 648 -14 q 799 44 731 -14 q 880 186 866 102 l 1026 1111 l 901 1111 "},"◊":{"x_min":34.71875,"x_max":479.171875,"ha":339,"o":"m 209 1113 l 190 989 l 262 989 l 126 124 l 54 124 l 34 0 l 304 0 l 323 124 l 251 124 l 387 989 l 459 989 l 479 1113 l 209 1113 "},"F":{"x_min":125,"x_max":958.328125,"ha":825,"o":"m 958 1111 l 300 1111 l 125 0 l 250 0 l 336 550 l 830 550 l 850 675 l 355 675 l 402 972 l 936 972 l 958 1111 "},"r":{"x_min":111.109375,"x_max":880.015625,"ha":824,"o":"m 731 518 l 856 518 l 877 656 q 854 751 887 712 q 766 790 822 790 q 627 765 733 790 q 433 716 522 741 l 344 691 l 358 778 l 233 778 l 111 0 l 236 0 l 325 565 q 736 663 706 663 q 744 601 755 663 l 731 518 "},":":{"x_min":106.140625,"x_max":334.140625,"ha":332,"o":"m 216 20 q 165 0 193 0 q 120 20 137 0 q 106 68 102 40 q 135 117 112 96 q 186 138 158 138 q 231 117 213 138 q 244 68 250 96 q 216 20 240 40 m 304 576 q 252 556 280 556 q 207 576 225 556 q 195 624 190 596 q 223 673 200 652 q 275 694 247 694 q 320 673 302 694 q 333 624 337 652 q 304 576 327 596 "},"x":{"x_min":41.671875,"x_max":865.28125,"ha":839,"o":"m 468 312 l 644 0 l 797 0 l 555 426 l 865 778 l 712 778 l 504 539 l 370 778 l 218 778 l 416 426 l 41 0 l 194 0 l 468 312 "},"*":{"x_min":240.28125,"x_max":701.390625,"ha":661,"o":"m 548 1077 l 451 1077 l 426 918 l 262 963 l 247 863 l 397 822 l 240 681 l 302 615 l 448 751 l 555 611 l 634 681 l 522 822 l 686 863 l 701 963 l 523 918 l 548 1077 "},"†":{"x_min":137.5,"x_max":643.0625,"ha":496,"o":"m 137 788 l 318 788 l 194 7 l 318 7 l 441 788 l 623 788 l 643 912 l 461 912 l 491 1105 l 368 1105 l 337 912 l 156 912 l 137 788 "},"V":{"x_min":224,"x_max":1080.953125,"ha":948,"o":"m 640 129 l 955 1111 l 1080 1111 l 730 33 q 704 0 725 15 q 663 -14 684 -14 l 276 -14 q 239 0 255 -14 q 224 33 224 15 l 224 1111 l 347 1111 l 347 129 q 358 111 347 111 l 623 111 q 640 129 636 111 "},"h":{"x_min":111.109375,"x_max":880.015625,"ha":879,"o":"m 744 601 l 650 0 l 775 0 l 877 656 q 854 751 887 712 q 766 790 822 790 q 627 765 733 790 q 433 716 522 741 l 344 691 l 404 1063 l 279 1063 l 111 0 l 236 0 l 325 565 q 736 664 706 664 q 744 601 755 664 "},"0":{"x_min":127.890625,"x_max":911.03125,"ha":872,"o":"m 783 892 l 669 170 q 646 127 665 144 q 600 111 627 111 l 305 111 q 265 127 279 111 q 255 170 251 143 l 369 892 q 392 935 373 918 q 438 951 411 951 l 733 951 q 773 935 759 951 q 783 892 787 919 m 794 170 l 908 892 q 875 1022 920 968 q 752 1077 830 1077 l 458 1077 q 319 1023 381 1077 q 244 892 256 969 l 130 170 q 163 40 118 94 q 286 -14 209 -14 l 580 -14 q 719 40 656 -14 q 794 170 781 94 "},".":{"x_min":106.140625,"x_max":245.75,"ha":332,"o":"m 216 20 q 165 0 193 0 q 120 20 137 0 q 106 68 102 40 q 135 117 112 96 q 186 138 158 138 q 231 117 213 138 q 244 68 250 96 q 216 20 240 40 "},"”":{"x_min":219.4375,"x_max":575.65625,"ha":538,"o":"m 318 823 l 375 928 q 393 980 388 953 q 309 1115 408 1078 l 236 1054 q 284 982 294 1032 q 276 951 283 967 l 219 846 l 318 823 m 498 823 l 555 928 q 573 980 569 953 q 490 1115 588 1078 l 416 1054 q 465 982 475 1032 q 456 951 463 967 l 400 846 l 498 823 "},"@":{"x_min":112.453125,"x_max":1259.34375,"ha":1249,"o":"m 447 227 l 494 521 q 517 564 498 547 q 563 580 535 580 l 858 580 q 901 568 888 580 q 908 521 913 555 l 876 322 q 455 219 528 219 q 447 227 447 219 m 369 521 l 322 227 q 346 132 313 171 q 434 94 378 94 q 573 119 467 94 q 767 169 678 144 l 856 194 l 844 115 l 1017 115 q 1142 163 1085 115 q 1208 279 1198 211 l 1255 575 q 1199 791 1274 701 q 998 881 1124 881 l 527 881 q 296 791 399 881 q 173 575 192 701 l 116 216 q 172 0 97 90 q 373 -89 247 -89 l 758 -89 l 778 36 l 394 36 q 275 90 320 36 q 241 216 230 144 l 298 575 q 372 701 309 647 q 508 755 434 755 l 978 755 q 1096 702 1051 755 q 1130 575 1141 649 l 1083 279 q 1063 250 1080 260 q 1031 240 1047 240 l 988 240 l 1033 521 q 999 651 1044 597 q 877 706 953 706 l 583 706 q 443 651 506 706 q 369 521 380 597 "},"f":{"x_min":77.78125,"x_max":716.671875,"ha":576,"o":"m 695 937 l 716 1063 l 526 1063 q 386 1008 450 1063 q 312 878 323 954 l 297 784 l 158 784 l 138 660 l 277 660 l 168 -30 q 144 -73 163 -56 q 97 -90 125 -90 l 77 -215 q 219 -160 156 -215 q 294 -30 281 -106 l 404 660 l 627 660 l 647 784 l 423 784 l 438 878 q 461 921 443 904 q 508 937 480 937 l 695 937 "},";":{"x_min":108.328125,"x_max":378.578125,"ha":393,"o":"m 349 595 q 297 575 325 575 q 252 595 269 575 q 240 643 236 615 q 268 692 244 671 q 319 713 291 713 q 364 692 347 713 q 377 643 381 671 q 349 595 373 615 m 233 -217 l 301 215 l 176 215 l 108 -217 l 233 -217 "},"“":{"x_min":266.03125,"x_max":623.609375,"ha":538,"o":"m 523 1110 l 466 1005 q 448 953 452 980 q 533 818 433 855 l 606 879 q 556 951 548 901 q 565 982 558 967 l 623 1087 l 523 1110 m 343 1110 l 286 1005 q 268 953 272 980 q 352 818 252 855 l 426 879 q 376 951 368 901 q 384 982 377 967 l 443 1087 l 343 1110 "},"i":{"x_min":141.765625,"x_max":411.109375,"ha":438,"o":"m 386 -14 l 405 111 l 322 111 q 280 127 294 111 q 270 170 266 144 l 366 777 l 240 777 l 144 170 q 177 40 131 94 q 300 -14 223 -14 l 386 -14 m 387 916 l 411 1063 l 286 1063 l 262 916 l 387 916 "},"6":{"x_min":128.359375,"x_max":911.03125,"ha":865,"o":"m 255 172 l 294 420 q 317 462 298 446 q 363 478 336 478 l 658 478 q 698 462 684 478 q 708 419 712 446 l 669 172 q 646 129 665 146 q 600 113 627 113 l 305 113 q 265 129 279 113 q 255 172 251 145 m 891 788 l 908 894 q 875 1024 920 970 q 752 1079 830 1079 l 458 1079 q 319 1025 381 1079 q 244 894 256 971 l 130 172 q 164 42 119 96 q 286 -12 209 -12 l 580 -12 q 720 42 656 -12 q 794 172 783 96 l 833 419 q 800 549 845 495 q 677 604 754 604 l 383 604 q 356 600 372 604 q 331 592 341 597 l 322 590 l 369 894 q 392 937 373 920 q 438 953 411 953 l 733 953 q 773 937 759 953 q 783 894 787 922 l 766 788 l 891 788 "},"A":{"x_min":41.84375,"x_max":896,"ha":946,"o":"m 896 0 l 775 0 l 775 270 l 257 270 l 166 0 l 41 0 l 390 1072 q 416 1105 396 1090 q 457 1120 436 1120 l 843 1120 q 880 1105 865 1120 q 896 1072 896 1090 l 896 0 m 771 395 l 771 976 q 759 995 771 995 l 497 995 q 480 976 484 995 l 294 395 l 771 395 "},"‘":{"x_min":266.03125,"x_max":443.0625,"ha":357,"o":"m 343 1110 l 286 1005 q 268 953 272 980 q 352 818 252 855 l 426 879 q 376 951 368 901 q 384 982 377 967 l 443 1087 l 343 1110 "},"n":{"x_min":111.109375,"x_max":880.015625,"ha":879,"o":"m 744 601 l 650 0 l 775 0 l 877 656 q 854 751 887 712 q 766 790 822 790 q 627 765 733 790 q 433 716 522 741 l 344 691 l 358 778 l 233 778 l 111 0 l 236 0 l 325 565 q 736 664 706 664 q 744 601 755 664 "},"O":{"x_min":130.28125,"x_max":991.9375,"ha":949,"o":"m 863 919 l 748 186 q 718 131 743 152 q 661 111 694 111 l 320 111 q 270 131 287 111 q 258 186 252 152 l 373 919 q 403 974 379 953 q 461 994 427 994 l 801 994 q 852 974 834 994 q 863 919 869 953 m 873 186 l 988 919 q 953 1061 1002 1003 q 820 1120 904 1120 l 480 1120 q 329 1061 397 1120 q 248 919 262 1003 l 133 186 q 168 44 119 102 q 301 -14 218 -14 l 641 -14 q 792 44 725 -14 q 873 186 859 102 "},"3":{"x_min":117.484375,"x_max":894.421875,"ha":863,"o":"m 477 631 l 458 505 l 637 505 q 685 474 668 505 q 698 415 702 443 l 658 159 q 586 118 651 118 l 300 118 q 254 127 266 118 q 245 159 241 137 l 281 391 l 156 391 l 120 159 q 150 36 106 79 q 280 -7 194 -7 l 568 -7 q 712 36 654 -7 q 783 159 770 79 l 823 415 q 818 517 831 468 q 761 582 804 565 q 866 746 845 617 l 891 911 q 859 1034 904 991 q 729 1078 815 1078 l 441 1078 q 299 1035 355 1078 q 229 911 243 993 l 225 884 l 350 884 l 354 911 q 422 953 361 953 l 708 953 q 752 942 734 953 q 766 911 770 932 l 741 746 q 711 672 736 714 q 656 631 686 631 l 477 631 "},"]":{"x_min":11.109375,"x_max":525,"ha":446,"o":"m 525 1209 l 218 1209 l 198 1084 l 380 1084 l 213 28 l 31 28 l 11 -97 l 318 -97 l 525 1209 "},"m":{"x_min":111.109375,"x_max":1209.1875,"ha":1208,"o":"m 777 692 l 773 689 q 736 758 766 731 q 661 785 705 785 q 548 760 627 785 q 406 711 469 736 l 344 687 l 358 778 l 233 778 l 111 0 l 236 0 l 323 560 q 631 659 602 659 q 638 596 650 659 l 545 0 l 669 0 l 758 565 q 1065 665 1036 665 q 1075 602 1086 665 l 980 0 l 1104 0 l 1206 657 q 1184 752 1216 713 q 1095 791 1151 791 q 983 766 1062 791 q 841 717 904 742 l 777 692 "},"9":{"x_min":121.421875,"x_max":904.09375,"ha":865,"o":"m 776 895 l 737 647 q 715 605 733 621 q 669 589 697 589 l 375 589 q 333 605 347 589 q 323 648 319 622 l 362 895 q 386 938 368 922 q 431 954 405 954 l 726 954 q 768 938 754 954 q 776 895 781 921 m 140 279 l 123 173 q 157 42 112 95 q 279 -11 202 -11 l 573 -11 q 713 43 651 -11 q 787 173 776 97 l 901 895 q 868 1025 913 971 q 747 1080 823 1080 l 452 1080 q 313 1025 376 1080 q 237 895 250 971 l 198 648 q 232 518 187 572 q 354 464 277 464 l 648 464 q 675 467 659 464 q 701 475 691 470 l 711 477 l 662 173 q 639 130 658 147 q 593 114 620 114 l 298 114 q 258 130 272 114 q 248 173 244 146 l 265 279 l 140 279 "},"l":{"x_min":141.765625,"x_max":412.5,"ha":438,"o":"m 386 -14 l 405 111 l 322 111 q 280 127 294 111 q 270 170 266 144 l 412 1061 l 286 1061 l 144 170 q 177 40 131 94 q 300 -14 223 -14 l 386 -14 "},"8":{"x_min":121.421875,"x_max":897.125,"ha":861,"o":"m 704 414 l 665 172 q 642 129 661 146 q 595 113 623 113 l 298 113 q 258 129 272 113 q 248 172 244 145 l 287 414 q 315 482 293 453 q 363 512 337 512 l 658 512 q 697 482 684 512 q 704 414 709 453 m 348 745 l 372 892 q 395 935 376 918 q 441 952 413 952 l 719 952 q 759 936 745 952 q 769 892 773 920 l 745 745 q 720 678 740 706 q 673 651 700 651 l 393 651 q 354 678 366 651 q 348 745 343 706 m 247 892 l 223 745 q 291 581 205 621 q 204 518 238 563 q 162 414 170 473 l 123 172 q 157 42 112 96 q 279 -12 202 -12 l 576 -12 q 715 42 652 -12 q 790 172 779 96 l 829 414 q 818 518 837 474 q 752 581 800 563 q 870 745 852 623 l 894 892 q 861 1022 906 968 q 738 1077 815 1077 l 461 1077 q 322 1022 384 1077 q 247 892 259 968 "},"p":{"x_min":69.4375,"x_max":873.921875,"ha":872,"o":"m 69 -214 l 194 -214 l 227 -2 q 286 -14 254 -14 l 580 -14 q 719 40 656 -14 q 794 170 781 94 l 872 659 q 847 753 880 714 q 759 792 815 792 q 621 767 726 792 q 427 717 516 742 l 338 693 l 351 777 l 226 777 l 69 -214 m 600 111 l 305 111 q 265 127 279 111 q 255 170 251 143 l 318 567 q 729 666 700 666 q 737 603 748 666 l 669 170 q 646 127 665 144 q 600 111 627 111 "},"4":{"x_min":56.9375,"x_max":884.71875,"ha":858,"o":"m 597 1063 l 884 1063 l 765 311 l 837 311 l 818 186 l 745 186 l 715 -8 l 590 -8 l 620 186 l 56 186 l 597 1063 m 270 311 l 640 311 l 738 937 l 665 937 l 270 311 "},"‡":{"x_min":45.828125,"x_max":643.0625,"ha":496,"o":"m 45 204 l 225 204 l 193 6 l 318 6 l 350 204 l 531 204 l 551 328 l 369 328 l 441 787 l 623 787 l 643 911 l 461 911 l 491 1104 l 366 1104 l 336 911 l 156 911 l 137 787 l 316 787 l 244 328 l 65 328 l 45 204 "},"R":{"x_min":125,"x_max":1006.546875,"ha":949,"o":"m 740 0 l 865 0 l 930 413 q 913 515 938 470 q 840 580 888 561 q 927 646 891 601 q 972 744 963 691 l 1004 944 q 974 1061 1015 1012 q 863 1111 933 1111 l 300 1111 l 125 0 l 250 0 l 331 518 l 762 518 q 805 413 816 491 l 740 0 m 783 643 l 351 643 l 405 987 l 838 987 q 869 974 858 987 q 877 944 880 962 l 845 741 q 783 643 833 663 "},"\r":{"x_min":0,"x_max":0,"ha":694},"o":{"x_min":120.9375,"x_max":859.140625,"ha":858,"o":"m 662 170 q 640 122 656 134 q 593 111 623 111 l 298 111 q 258 127 272 111 q 248 170 244 143 l 318 607 q 340 650 322 633 q 387 666 359 666 l 681 666 q 722 650 708 666 q 731 607 736 634 l 662 170 m 787 170 l 856 607 q 822 738 868 684 q 701 792 777 792 l 406 792 q 266 737 329 792 q 193 607 204 683 l 123 170 q 156 40 111 94 q 279 -14 202 -14 l 573 -14 q 712 40 650 -14 q 787 170 775 94 "},"5":{"x_min":103.59375,"x_max":913.890625,"ha":829,"o":"m 687 432 l 644 159 q 572 118 637 118 l 286 118 q 240 127 252 118 q 231 159 227 137 l 268 391 l 143 391 l 106 159 q 136 36 93 79 q 266 -7 180 -7 l 554 -7 q 698 36 640 -7 q 769 159 756 79 l 812 432 q 661 645 845 645 l 338 645 l 384 938 l 893 938 l 913 1062 l 280 1062 l 194 519 l 641 519 q 684 497 676 519 q 687 432 693 475 "}}}
